Coordinates
version=1
nRows=5
nColumns=46
inDegrees=yes

Units are S.I. units (second, meters, Newtons, ...)
Angles are in degrees.

endheader
time	pelvis_tilt	pelvis_list	pelvis_rotation	pelvis_tx	pelvis_ty	pelvis_tz	bb_angle	bb_tx	bb_ty	bb_tz	hip_flexion_r	hip_adduction_r	hip_rotation_r	knee_angle_r	knee_angle_r_beta	ankle_angle_r	subtalar_angle_r	mtp_angle_r	crank_angle_r	hip_flexion_l	hip_adduction_l	hip_rotation_l	knee_angle_l	knee_angle_l_beta	ankle_angle_l	subtalar_angle_l	mtp_angle_l	crank_angle_l	lumbar_extension	lumbar_bending	lumbar_rotation	arm_flex_r	arm_add_r	arm_rot_r	elbow_flex_r	pro_sup_r	wrist_flex_r	wrist_dev_r	arm_flex_l	arm_add_l	arm_rot_l	elbow_flex_l	pro_sup_l	wrist_flex_l	wrist_dev_l
      7.50000000	     -8.38388563	     -0.56252268	      1.83465698	      0.11911026	      1.12092852	     -0.28992554	      0.00000000	      0.50000000	      0.00000000	      0.25000000	     58.78647491	    -11.71868079	     -2.65566970	     99.18887671	      1.73117248	      9.35766931	     -2.91100860	      0.00000000	      0.00000000	     59.91018595	     -3.97409570	      2.39560957	     60.95596978	      1.06388237	      5.87902462	     -3.21202954	      0.00000000	      0.00000000	    -66.75218446	      2.21363716	     -4.98137140	     84.51555770	    -14.19932213	     34.38790733	     62.07710527	     43.84679165	      0.00000000	      0.00000000	     78.74816346	    -25.91980838	     23.92852758	     67.60999196	     50.50124065	      0.00000000	      0.00000000
      7.50500000	     -8.32745333	     -0.55164450	      1.73425433	      0.11968800	      1.12259684	     -0.29083612	      0.00000000	      0.50000000	      0.00000000	      0.25000000	     59.77076078	    -11.89960848	     -2.31292876	    100.75137805	      1.75844327	     10.20744283	     -2.28174009	      0.00000000	      0.00000000	     58.10501152	     -4.07126287	      2.14871502	     58.51188915	      1.02122512	      4.85090509	     -2.40748180	      0.00000000	      0.00000000	    -66.94827783	      2.28346843	     -5.02148754	     84.77313429	    -14.19003349	     34.72328376	     61.98011751	     43.88396682	      0.00000000	      0.00000000	     78.80823553	    -26.19892946	     24.00516624	     67.66543522	     50.51645440	      0.00000000	      0.00000000
      7.51000000	     -8.48850809	     -0.88511616	      1.59116574	      0.12028501	      1.12390680	     -0.29150037	      0.00000000	      0.50000000	      0.00000000	      0.25000000	     60.92584065	    -11.76046459	     -2.27088700	    102.18180859	      1.78340900	     10.90597366	     -2.07264011	      0.00000000	      0.00000000	     56.59760989	     -4.48024384	      2.10470178	     56.15426392	      0.98007679	      3.78155867	     -1.54669323	      0.00000000	      0.00000000	    -66.86488651	      2.54622852	     -4.70642589	     84.98166736	    -14.07658600	     34.99133184	     61.92400842	     43.91255698	      0.00000000	      0.00000000	     78.67169976	    -26.51964645	     24.08336582	     67.62794534	     50.51882429	      0.00000000	      0.00000000
      7.51500000	     -8.70157660	     -1.07989874	      1.40472960	      0.12118862	      1.12531279	     -0.29224617	      0.00000000	      0.50000000	      0.00000000	      0.25000000	     62.19553414	    -11.71708348	     -2.09036267	    103.55161501	      1.80731663	     11.62505781	     -1.51119594	      0.00000000	      0.00000000	     54.99761088	     -4.83057666	      1.87330088	     53.72736180	      0.93771936	      2.93118331	     -0.67776812	      0.00000000	      0.00000000	    -66.78681082	      2.68845532	     -4.59568865	     85.21185970	    -13.92562585	     35.43915024	     61.81225243	     43.95336389	      0.00000000	      0.00000000	     78.56424581	    -26.91020534	     24.23981811	     67.60474250	     50.54001523	      0.00000000	      0.00000000
      7.52000000	     -9.02358191	     -1.62744331	      1.18958118	      0.12183488	      1.12649836	     -0.29304160	      0.00000000	      0.50000000	      0.00000000	      0.25000000	     63.52258608	    -11.37947526	     -2.24194270	    104.78092939	      1.82877221	     12.12063227	     -1.42832934	      0.00000000	      0.00000000	     53.63704606	     -5.45526598	      1.87402040	     51.45493835	      0.89805809	      2.07830859	      0.13586572	      0.00000000	      0.00000000	    -66.60732079	      3.07157861	     -4.03533042	     85.37918802	    -13.74461140	     35.54164027	     61.83285319	     43.96832358	      0.00000000	      0.00000000	     78.39459649	    -27.16364375	     24.23632657	     67.54521954	     50.52661798	      0.00000000	      0.00000000
